<?xml version="1.0" encoding="UTF-8" standalone="no"?>
<svg width="112px" height="128px" viewBox="0 0 112 128" version="1.1" xmlns="http://www.w3.org/2000/svg" xmlns:xlink="http://www.w3.org/1999/xlink">
    <path opacity="0.5" fill="#FFFFFF" d="M16,93.5 L16,16 L40,16 L80,16 L80,40 L96,40 L96,72 L88,72 L88,80 L80,80 L80,88 L64,88 L64,96 L48,96 L48,96 L48,104 L32,104 L32,112 L16,112 L16,93.5 L16,93.5 Z M92,112 L96,112 L96,88 L88,88 L88,104 L72,104 L72,112 L92,112 L92,112 L92,112 Z"></path>
    <path opacity="0.5" fill="#000000" d="M56,32 L64,32 L64,48 L56,48 L56,32 L56,32 Z M40,48 L56,48 L56,56 L40,56 L40,48 L40,48 Z M88,56 L96,56 L96,72 L88,72 L88,56 L88,56 Z M64,80 L80,80 L80,88 L64,88 L64,80 L64,80 Z M24,96 L48,96 L48,104 L24,104 L24,96 L24,96 Z"></path>
    <path fill="#FFFFFF" d="M48,48 L56,48 L56,24 L40,24 L40,32 L32,32 L32,48 L48,48 L48,48 L48,48 Z M32,72 L40,72 L40,80 L40,80 L48,80 L48,88 L56,88 L56,96 L24,96 L24,94 L24,64 L32,64 L32,72 L32,72 Z M104,120 L64,120 L64,128 L108,128 L112,128 L112,80 L104,80 L104,120 L104,120 L104,120 Z M88,16 L88,32 L88,32 L104,32 L104,24 L112,24 L112,56 L104,56 L104,40 L84,40 L80,40 L80,8 L80,8 L8,8 L8,120 L8,120 L16,120 L16,128 L0,128 L0,124 L0,4 L0,0 L88,0 L88,4 L88,8 L96,8 L96,16 L88,16 L88,16 Z M96,16 L104,16 L104,24 L96,24 L96,16 L96,16 Z M64,56 L88,56 L88,80 L64,80 L64,56 L64,56 Z"></path>
</svg>
